<svg xmlns="http://www.w3.org/2000/svg" xmlns:xlink="http://www.w3.org/1999/xlink" width="2000" zoomAndPan="magnify" viewBox="0 0 1500 1499.999933" height="2000" preserveAspectRatio="xMidYMid meet" version="1.0"><path stroke-linecap="butt" transform="matrix(0.75, 0, 0, 0.75, 484.582168, 891.078479)" fill="none" stroke-linejoin="miter" d="M -0.000181815 1.999528 L 661.604042 1.999528 " stroke="#000000" stroke-width="4" stroke-opacity="1" stroke-miterlimit="4"/><path stroke-linecap="butt" transform="matrix(-0.203136, 0.721966, -0.721966, -0.203136, 1068.132949, 587.671441)" fill="none" stroke-linejoin="miter" d="M 0.00113254 2.001782 L 422.890572 1.999357 " stroke="#000000" stroke-width="4" stroke-opacity="1" stroke-miterlimit="4"/><path stroke-linecap="butt" transform="matrix(0.656289, -0.363022, 0.363022, 0.656289, 864.246703, 697.5304)" fill="none" stroke-linejoin="miter" d="M -0.000603873 2.000843 L 307.361335 2.002322 " stroke="#000000" stroke-width="4" stroke-opacity="1" stroke-miterlimit="4"/><path stroke-linecap="butt" transform="matrix(0.410081, 0.62796, -0.62796, 0.410081, 733.67733, 495.051489)" fill="none" stroke-linejoin="miter" d="M -0.000283326 1.999075 L 323.231204 1.999461 " stroke="#000000" stroke-width="4" stroke-opacity="1" stroke-miterlimit="4"/><path stroke-linecap="butt" transform="matrix(0.409233, -0.628513, 0.628513, 0.409233, 599.00559, 698.022568)" fill="none" stroke-linejoin="miter" d="M 0.000677434 1.998132 L 322.943293 2.000348 " stroke="#000000" stroke-width="4" stroke-opacity="1" stroke-miterlimit="4"/><path stroke-linecap="butt" transform="matrix(-0.656916, -0.361886, 0.361886, -0.656916, 599.531646, 700.154752)" fill="none" stroke-linejoin="miter" d="M 0.00245858 2.000285 L 308.326509 2.000082 " stroke="#000000" stroke-width="4" stroke-opacity="1" stroke-miterlimit="4"/><path stroke-linecap="butt" transform="matrix(-0.20523, -0.721374, 0.721374, -0.20523, 483.137104, 892.987175)" fill="none" stroke-linejoin="miter" d="M -0.00117904 1.997271 L 423.240657 2.001003 " stroke="#000000" stroke-width="4" stroke-opacity="1" stroke-miterlimit="4"/><path stroke-linecap="butt" transform="matrix(0.75, 0, 0, 0.75, 484.582168, 891.078479)" fill="none" stroke-linejoin="miter" d="M -0.000181815 1.999528 L 661.604042 1.999528 " stroke="#000000" stroke-width="4" stroke-opacity="1" stroke-miterlimit="4"/><path stroke-linecap="butt" transform="matrix(0.75, 0, 0, 0.75, 485.079592, 1002.831566)" fill="none" stroke-linejoin="miter" d="M -0.00195542 2.000621 L 659.789768 2.000621 " stroke="#000000" stroke-width="4" stroke-opacity="1" stroke-miterlimit="4"/><path stroke-linecap="butt" transform="matrix(0.000000001309, 0.75, -0.75, 0.000000001309, 486.577863, 906.056398)" fill="none" stroke-linejoin="miter" d="M -0.00228061 1.999651 L 131.034189 1.999652 " stroke="#000000" stroke-width="4" stroke-opacity="1" stroke-miterlimit="4"/><path stroke-linecap="butt" transform="matrix(-0.00753425, 0.749962, -0.749962, -0.00753425, 734.91033, 906.073438)" fill="none" stroke-linejoin="miter" d="M 0.000302378 2.00033 L 131.543429 2.001809 " stroke="#000000" stroke-width="4" stroke-opacity="1" stroke-miterlimit="4"/><path stroke-linecap="butt" transform="matrix(0, 0.75, -0.75, 0, 981.417957, 906.059782)" fill="none" stroke-linejoin="miter" d="M -0.00158428 1.999984 L 131.592177 1.999984 " stroke="#000000" stroke-width="4" stroke-opacity="1" stroke-miterlimit="4"/><path stroke-linecap="butt" transform="matrix(0.697741, 0.275059, -0.275059, 0.697741, 486.265455, 905.650558)" fill="none" stroke-linejoin="miter" d="M -0.000205266 2.001277 L 353.691008 2.000351 " stroke="#000000" stroke-width="4" stroke-opacity="1" stroke-miterlimit="4"/><path stroke-linecap="butt" transform="matrix(0.696675, 0.277747, -0.277747, 0.696675, 733.969434, 904.662382)" fill="none" stroke-linejoin="miter" d="M -0.000365238 1.998645 L 353.834613 1.999825 " stroke="#000000" stroke-width="4" stroke-opacity="1" stroke-miterlimit="4"/><path stroke-linecap="butt" transform="matrix(0.697374, -0.275988, 0.275988, 0.697374, 484.532776, 1002.934934)" fill="none" stroke-linejoin="miter" d="M 0.00223519 1.998652 L 356.090963 2.002423 " stroke="#000000" stroke-width="4" stroke-opacity="1" stroke-miterlimit="4"/><path stroke-linecap="butt" transform="matrix(-0.298334, -0.688111, 0.688111, -0.298334, 629.175267, 1004.926765)" fill="none" stroke-linejoin="miter" d="M -0.00198966 1.998108 L 71.411565 1.998675 " stroke="#000000" stroke-width="4" stroke-opacity="1" stroke-miterlimit="4"/><path stroke-linecap="butt" transform="matrix(0.502448, -0.556818, 0.556818, 0.502448, 483.970048, 1003.323518)" fill="none" stroke-linejoin="miter" d="M -0.00119119 1.998107 L 129.090158 2.00106 " stroke="#000000" stroke-width="4" stroke-opacity="1" stroke-miterlimit="4"/><path stroke-linecap="butt" transform="matrix(0.75, 0, 0, 0.75, 609.249581, 953.693106)" fill="none" stroke-linejoin="miter" d="M 0.000558836 1.997734 L 104.781818 1.997734 " stroke="#000000" stroke-width="4" stroke-opacity="1" stroke-miterlimit="4"/><path stroke-linecap="butt" transform="matrix(-0.509588, 0.55029, -0.55029, -0.509588, 733.516722, 908.06743)" fill="none" stroke-linejoin="miter" d="M -0.00300366 1.999461 L 87.495843 2.002092 " stroke="#000000" stroke-width="4" stroke-opacity="1" stroke-miterlimit="4"/><path stroke-linecap="butt" transform="matrix(-0.504467, -0.554989, 0.554989, -0.504467, 731.386482, 1005.338221)" fill="none" stroke-linejoin="miter" d="M 0.0014764 2.000681 L 88.538189 2.000274 " stroke="#000000" stroke-width="4" stroke-opacity="1" stroke-miterlimit="4"/><path stroke-linecap="butt" transform="matrix(0.479959, -0.576315, 0.576315, 0.479959, 731.348298, 1003.370174)" fill="none" stroke-linejoin="miter" d="M -0.0027786 2.000703 L 128.566943 1.998606 " stroke="#000000" stroke-width="4" stroke-opacity="1" stroke-miterlimit="4"/><path stroke-linecap="butt" transform="matrix(0.699202, -0.271324, 0.271324, 0.699202, 731.958666, 1002.931406)" fill="none" stroke-linejoin="miter" d="M -0.000821564 1.997272 L 181.108304 2.000919 " stroke="#000000" stroke-width="4" stroke-opacity="1" stroke-miterlimit="4"/><path stroke-linecap="butt" transform="matrix(-0.174544, 0.729407, -0.729407, -0.174544, 872.344878, 906.406774)" fill="none" stroke-linejoin="miter" d="M 0.000975547 1.99887 L 67.366166 1.998308 " stroke="#000000" stroke-width="4" stroke-opacity="1" stroke-miterlimit="4"/><path stroke-linecap="butt" transform="matrix(-0.694716, 0.282612, -0.282612, -0.694716, 980.478981, 907.445878)" fill="none" stroke-linejoin="miter" d="M -0.00126176 2.002018 L 173.873517 1.999899 " stroke="#000000" stroke-width="4" stroke-opacity="1" stroke-miterlimit="4"/><path stroke-linecap="butt" transform="matrix(-0.749804, 0.0171512, -0.0171512, -0.749804, 946.177968, 954.702378)" fill="none" stroke-linejoin="miter" d="M -0.00114332 1.999501 L 116.049979 2.00235 " stroke="#000000" stroke-width="4" stroke-opacity="1" stroke-miterlimit="4"/><path stroke-linecap="butt" transform="matrix(0.436795, -0.60968, 0.60968, 0.436795, 944.924472, 952.327746)" fill="none" stroke-linejoin="miter" d="M -0.00139591 2.002147 L 77.33061 2.000663 " stroke="#000000" stroke-width="4" stroke-opacity="1" stroke-miterlimit="4"/><path stroke-linecap="butt" transform="matrix(0.413422, 0.625765, -0.625765, 0.413422, 947.395608, 952.37685)" fill="none" stroke-linejoin="miter" d="M -0.000299055 1.999077 L 81.704587 2.001071 " stroke="#000000" stroke-width="4" stroke-opacity="1" stroke-miterlimit="4"/><path stroke-linecap="butt" transform="matrix(0.75, 0, 0, 0.75, 485.08504, 904.554622)" fill="none" stroke-linejoin="miter" d="M 0.00119724 2.000087 L 662.209588 2.000087 " stroke="#000000" stroke-width="4" stroke-opacity="1" stroke-miterlimit="4"/><path stroke-linecap="butt" transform="matrix(0.409909, -0.628072, 0.628072, 0.409909, 607.993037, 954.372426)" fill="none" stroke-linejoin="miter" d="M 0.00153214 2.000304 L 78.236763 2.001868 " stroke="#000000" stroke-width="4" stroke-opacity="1" stroke-miterlimit="4"/><path stroke-linecap="butt" transform="matrix(-0.416792, -0.623526, 0.623526, -0.416792, 489.572079, 727.638373)" fill="none" stroke-linejoin="miter" d="M -0.000761695 2.001386 L 225.789856 1.998608 " stroke="#000000" stroke-width="4" stroke-opacity="1" stroke-miterlimit="4"/><path stroke-linecap="butt" transform="matrix(0.389311, -0.641044, 0.641044, 0.389311, 488.723799, 725.086094)" fill="none" stroke-linejoin="miter" d="M 0.00296687 2.001202 L 102.576684 2.00205 " stroke="#000000" stroke-width="4" stroke-opacity="1" stroke-miterlimit="4"/><path stroke-linecap="butt" transform="matrix(-0.587042, 0.466777, -0.466777, -0.587042, 491.757831, 727.044061)" fill="none" stroke-linejoin="miter" d="M 0.000987515 1.998882 L 74.532817 2.000072 " stroke="#000000" stroke-width="4" stroke-opacity="1" stroke-miterlimit="4"/><path stroke-linecap="butt" transform="matrix(-0.0199113, 0.749736, -0.749736, -0.0199113, 492.321735, 726.850981)" fill="none" stroke-linejoin="miter" d="M 0.00185659 2.002553 L 220.084545 1.998264 " stroke="#000000" stroke-width="4" stroke-opacity="1" stroke-miterlimit="4"/><path stroke-linecap="butt" transform="matrix(0.579118, 0.476573, -0.476573, 0.579118, 491.778087, 724.712486)" fill="none" stroke-linejoin="miter" d="M -0.000427973 2.000994 L 106.927772 1.997386 " stroke="#000000" stroke-width="4" stroke-opacity="1" stroke-miterlimit="4"/><path stroke-linecap="butt" transform="matrix(0.374651, -0.64972, 0.64972, 0.374651, 485.141848, 891.062063)" fill="none" stroke-linejoin="miter" d="M -0.00123126 2.000892 L 176.978971 1.999092 " stroke="#000000" stroke-width="4" stroke-opacity="1" stroke-miterlimit="4"/><path stroke-linecap="butt" transform="matrix(-0.285027, -0.693729, 0.693729, -0.285027, 598.603878, 892.384055)" fill="none" stroke-linejoin="miter" d="M 0.00141849 2.001812 L 165.751435 1.997768 " stroke="#000000" stroke-width="4" stroke-opacity="1" stroke-miterlimit="4"/><path stroke-linecap="butt" transform="matrix(-0.683965, -0.307721, 0.307721, -0.683965, 674.648111, 833.316772)" fill="none" stroke-linejoin="miter" d="M 0.00202476 1.998539 L 179.127881 1.999005 " stroke="#000000" stroke-width="4" stroke-opacity="1" stroke-miterlimit="4"/><path stroke-linecap="butt" transform="matrix(-0.586991, 0.466842, -0.466842, -0.586991, 676.198343, 833.123284)" fill="none" stroke-linejoin="miter" d="M -0.00107627 1.999285 L 128.236012 1.997982 " stroke="#000000" stroke-width="4" stroke-opacity="1" stroke-miterlimit="4"/><path stroke-linecap="butt" transform="matrix(-0.392186, 0.639289, -0.639289, -0.392186, 601.268646, 700.951144)" fill="none" stroke-linejoin="miter" d="M 0.00260644 2.001196 L 118.083322 1.999619 " stroke="#000000" stroke-width="4" stroke-opacity="1" stroke-miterlimit="4"/><path stroke-linecap="butt" transform="matrix(0.145231, 0.735804, -0.735804, 0.145231, 531.411492, 659.826547)" fill="none" stroke-linejoin="miter" d="M 0.000627588 1.998054 L 157.02991 1.9991 " stroke="#000000" stroke-width="4" stroke-opacity="1" stroke-miterlimit="4"/><path stroke-linecap="butt" transform="matrix(0.367853, 0.653593, -0.653593, 0.367853, 601.298958, 697.471144)" fill="none" stroke-linejoin="miter" d="M 0.000482351 1.999635 L 204.627269 1.998378 " stroke="#000000" stroke-width="4" stroke-opacity="1" stroke-miterlimit="4"/><path stroke-linecap="butt" transform="matrix(-0.00057591, -0.75, 0.75, -0.00057591, 731.521434, 781.939065)" fill="none" stroke-linejoin="miter" d="M 0.000552386 1.997464 L 379.104869 2.002112 " stroke="#000000" stroke-width="4" stroke-opacity="1" stroke-miterlimit="4"/><path stroke-linecap="butt" transform="matrix(0.246166, -0.708451, 0.708451, 0.246166, 731.609154, 781.450233)" fill="none" stroke-linejoin="miter" d="M 0.00202219 2.001116 L 263.124634 1.997942 " stroke="#000000" stroke-width="4" stroke-opacity="1" stroke-miterlimit="4"/><path stroke-linecap="butt" transform="matrix(-0.244781, -0.70893, 0.70893, -0.244781, 731.603226, 782.428737)" fill="none" stroke-linejoin="miter" d="M 0.00278725 1.998768 L 262.94811 1.999842 " stroke="#000000" stroke-width="4" stroke-opacity="1" stroke-miterlimit="4"/><path stroke-linecap="butt" transform="matrix(-0.605837, -0.44211, 0.44211, -0.605837, 731.91993, 643.552365)" fill="none" stroke-linejoin="miter" d="M 0.0000880163 2.001334 L 105.881087 1.997213 " stroke="#000000" stroke-width="4" stroke-opacity="1" stroke-miterlimit="4"/><path stroke-linecap="butt" transform="matrix(0.607873, -0.439307, 0.439307, 0.607873, 732.147042, 641.124189)" fill="none" stroke-linejoin="miter" d="M 0.00189398 2.00122 L 106.556027 1.997086 " stroke="#000000" stroke-width="4" stroke-opacity="1" stroke-miterlimit="4"/><path stroke-linecap="butt" transform="matrix(-0.63229, 0.403373, -0.403373, -0.63229, 864.564223, 700.426216)" fill="none" stroke-linejoin="miter" d="M -0.00143728 2.001423 L 206.448107 1.999423 " stroke="#000000" stroke-width="4" stroke-opacity="1" stroke-miterlimit="4"/><path stroke-linecap="butt" transform="matrix(0.384485, 0.643949, -0.643949, 0.384485, 866.012647, 698.390656)" fill="none" stroke-linejoin="miter" d="M 0.00184657 1.998285 L 301.001337 1.997431 " stroke="#000000" stroke-width="4" stroke-opacity="1" stroke-miterlimit="4"/><path stroke-linecap="butt" transform="matrix(-0.684823, 0.305805, -0.305805, -0.684823, 912.551379, 778.050849)" fill="none" stroke-linejoin="miter" d="M -0.00281742 2.000954 L 176.668229 2.000331 " stroke="#000000" stroke-width="4" stroke-opacity="1" stroke-miterlimit="4"/><path stroke-linecap="butt" transform="matrix(-0.366821, 0.654173, -0.654173, -0.366821, 866.028007, 699.895984)" fill="none" stroke-linejoin="miter" d="M 0.00259391 1.999937 L 201.085657 2.000421 " stroke="#000000" stroke-width="4" stroke-opacity="1" stroke-miterlimit="4"/><path stroke-linecap="butt" transform="matrix(-0.282141, 0.694907, -0.694907, -0.282141, 913.330395, 777.248769)" fill="none" stroke-linejoin="miter" d="M -0.00151709 1.999427 L 167.371234 1.999256 " stroke="#000000" stroke-width="4" stroke-opacity="1" stroke-miterlimit="4"/><path stroke-linecap="butt" transform="matrix(-0.41541, 0.624447, -0.624447, -0.41541, 1067.878069, 588.718585)" fill="none" stroke-linejoin="miter" d="M -0.000963954 2.001071 L 220.706289 2.000476 " stroke="#000000" stroke-width="4" stroke-opacity="1" stroke-miterlimit="4"/><path stroke-linecap="butt" transform="matrix(-0.584121, 0.470428, -0.470428, -0.584121, 975.887757, 726.873901)" fill="none" stroke-linejoin="miter" d="M 0.00279622 1.999904 L 107.420822 2.002009 " stroke="#000000" stroke-width="4" stroke-opacity="1" stroke-miterlimit="4"/><path stroke-linecap="butt" transform="matrix(0.0304443, 0.749382, -0.749382, 0.0304443, 976.442517, 725.648173)" fill="none" stroke-linejoin="miter" d="M 0.00258287 1.998025 L 223.228088 2.001992 " stroke="#000000" stroke-width="4" stroke-opacity="1" stroke-miterlimit="4"/><path stroke-linecap="butt" transform="matrix(0.571593, 0.485573, -0.485573, 0.571593, 975.917469, 724.564598)" fill="none" stroke-linejoin="miter" d="M -0.00167596 2.000108 L 75.13269 2.002091 " stroke="#000000" stroke-width="4" stroke-opacity="1" stroke-miterlimit="4"/><path stroke-linecap="butt" transform="matrix(0.392164, 0.639302, -0.639302, 0.392164, 936.475489, 660.121627)" fill="none" stroke-linejoin="miter" d="M -0.000762016 2.001992 L 101.36068 2.00254 " stroke="#000000" stroke-width="4" stroke-opacity="1" stroke-miterlimit="4"/><path stroke-linecap="butt" transform="matrix(-0.146662, 0.73552, -0.73552, -0.146662, 936.663817, 661.202491)" fill="none" stroke-linejoin="miter" d="M 0.00165028 2.001533 L 156.804713 2.000258 " stroke="#000000" stroke-width="4" stroke-opacity="1" stroke-miterlimit="4"/><path stroke-linecap="butt" transform="matrix(0.635493, 0.398307, -0.398307, 0.635493, 601.160598, 697.890736)" fill="none" stroke-linejoin="miter" d="M -0.00190073 1.998728 L 209.075691 1.99901 " stroke="#000000" stroke-width="4" stroke-opacity="1" stroke-miterlimit="4"/><path stroke-linecap="butt" transform="matrix(0.571658, -0.485496, 0.485496, 0.571658, 673.926479, 830.829628)" fill="none" stroke-linejoin="miter" d="M 0.00123013 2.00054 L 102.0404 2.001574 " stroke="#000000" stroke-width="4" stroke-opacity="1" stroke-miterlimit="4"/><path stroke-linecap="butt" transform="matrix(0, -0.75, 0.75, 0, 731.72457, 892.983407)" fill="none" stroke-linejoin="miter" d="M -0.00129055 1.997448 L 147.404972 1.997448 " stroke="#000000" stroke-width="4" stroke-opacity="1" stroke-miterlimit="4"/><path stroke-linecap="butt" transform="matrix(-0.567548, -0.490295, 0.490295, -0.567548, 789.588469, 833.107636)" fill="none" stroke-linejoin="miter" d="M -0.00136651 2.000975 L 101.040965 1.998406 " stroke="#000000" stroke-width="4" stroke-opacity="1" stroke-miterlimit="4"/><path stroke-linecap="butt" transform="matrix(-0.513647, 0.546504, -0.546504, -0.513647, 791.666341, 833.002996)" fill="none" stroke-linejoin="miter" d="M 0.0000274155 1.998354 L 111.643791 2.002314 " stroke="#000000" stroke-width="4" stroke-opacity="1" stroke-miterlimit="4"/><path stroke-linecap="butt" transform="matrix(0.508297, 0.551484, -0.551484, 0.508297, 677.674007, 830.961172)" fill="none" stroke-linejoin="miter" d="M -0.00183631 1.999625 L 110.637932 1.998791 " stroke="#000000" stroke-width="4" stroke-opacity="1" stroke-miterlimit="4"/><path stroke-linecap="butt" transform="matrix(0.576492, 0.479747, -0.479747, 0.576492, 790.687477, 830.224468)" fill="none" stroke-linejoin="miter" d="M -0.000215197 2.002702 L 128.426152 1.997827 " stroke="#000000" stroke-width="4" stroke-opacity="1" stroke-miterlimit="4"/></svg>